<?xml version="1.0" encoding="UTF-8" standalone="no"?>
<svg
   width="24px"
   height="24px"
   viewBox="0 0 24 24"
   fill="none"
   version="1.1"
   id="svg217"
   sodipodi:docname="todoItem__clearBtn.svg"
   inkscape:version="1.2.1 (9c6d41e410, 2022-07-14)"
   xmlns:inkscape="http://www.inkscape.org/namespaces/inkscape"
   xmlns:sodipodi="http://sodipodi.sourceforge.net/DTD/sodipodi-0.dtd"
   xmlns="http://www.w3.org/2000/svg"
   xmlns:svg="http://www.w3.org/2000/svg">
  <defs
     id="defs221" />
  <sodipodi:namedview
     id="namedview219"
     pagecolor="#ffffff"
     bordercolor="#000000"
     borderopacity="0.25"
     inkscape:showpageshadow="2"
     inkscape:pageopacity="0.0"
     inkscape:pagecheckerboard="0"
     inkscape:deskcolor="#d1d1d1"
     showgrid="false"
     inkscape:zoom="33.916667"
     inkscape:cx="12"
     inkscape:cy="12"
     inkscape:window-width="1920"
     inkscape:window-height="1017"
     inkscape:window-x="-8"
     inkscape:window-y="-8"
     inkscape:window-maximized="1"
     inkscape:current-layer="svg217" />
  <path
     d="m 0.24172001,13.509079 c 0.16758461,0.136799 0.37707681,0.205141 0.62845373,0.205141 0.41252736,0 0.69614356,-0.214399 0.85083706,-0.643311 L 2.9489247,9.7333251 h 5.5207839 l 1.2376051,3.3375839 c 0.1546249,0.428912 0.4382753,0.643311 0.8508373,0.643311 0.251308,0 0.457588,-0.06834 0.618728,-0.205141 0.167653,-0.142971 0.251423,-0.320113 0.251423,-0.531427 0,-0.124227 -0.03543,-0.279655 -0.106398,-0.466054 L 6.8260445,0.80177904 C 6.6197751,0.26725587 6.2555895,0 5.7334875,0 5.1791577,0 4.7988581,0.27036443 4.5925887,0.81110471 L 0.10635178,12.511598 C 0.0354506,12.697997 0,12.853425 0,12.977652 c 0,0.211314 0.08056953,0.388456 0.24172001,0.531427 z M 7.9766117,8.3068404 H 3.4516899 l 2.2334559,-6.134565 h 0.05801 z"
     fill="#212121"
     id="path211"
     style="stroke-width:1.14284" />
  <path
     d="m 12.571132,12.691711 1.998238,-1.998276 c -0.262736,-0.551198 -0.394048,-1.2071945 -0.394048,-1.967888 0,-1.0632635 0.259537,-1.922528 0.778839,-2.5777934 0.525474,-0.6614483 1.199287,-0.9921667 2.021438,-0.9921667 0.853008,0 1.526821,0.3214499 2.021324,0.9643497 0.407533,0.5297232 0.647071,1.2126342 0.71884,2.0487331 0.485246,0.1594964 0.941349,0.4321351 1.327283,0.8181104 l 0.326393,0.3263184 c 0.01315,-0.1904905 0.01977,-0.3863524 0.01977,-0.5875515 0,-1.5083471 -0.373935,-2.7168785 -1.121917,-3.6256056 -0.747982,-0.9087156 -1.730931,-1.3630678 -2.948616,-1.3630678 -0.673812,0 -1.282712,0.1576336 -1.8267,0.4729006 -0.537816,0.3152671 -0.961234,0.7510822 -1.27037,1.3074452 h -0.03702 V 0.86235018 c 0,-0.25345022 -0.07726,-0.46053495 -0.231879,-0.62126561 C 13.80436,0.08036533 13.612707,0 13.377855,0 13.14289,0 12.948266,0.08036533 12.793641,0.24108457 12.645301,0.40181523 12.571132,0.60889996 12.571132,0.86235018 Z"
     fill="#212121"
     id="path213"
     style="stroke-width:1.14284" />
  <path
     d="m 17.12131,22.285722 h 3.451804 c 0.473361,0 0.857123,0.383656 0.857123,0.857139 C 21.430237,23.61623 21.046475,24 20.573114,24 h -6.287165 l 0.0027,-0.0085 C 13.785004,23.94773 13.293473,23.733215 12.90811,23.34796 L 9.7951974,20.234875 C 8.9251036,19.364822 8.9259835,17.953172 9.7971401,17.081976 L 17.082225,9.7968676 c 0.871065,-0.8712072 2.282689,-0.8720758 3.152726,-0.00194 l 3.113069,3.1130144 c 0.870037,0.870167 0.869236,2.281703 -0.002,3.152899 z m 1.173001,-11.276746 -4.750631,4.750835 3.839567,3.839524 4.75063,-4.75072 c 0.203081,-0.203085 0.201138,-0.529255 0.002,-0.728454 l -3.113012,-3.113128 c -0.199309,-0.199199 -0.525474,-0.201142 -0.728554,0.0019 z m -5.962831,5.962943 -1.32214,1.32228 c -0.203195,0.203084 -0.201253,0.529254 -0.002,0.728453 l 3.112955,3.113128 c 0.199196,0.199199 0.525359,0.201142 0.728555,-0.0019 l 1.32214,-1.322279 z"
     fill="#212121"
     id="path215"
     style="stroke-width:1.14284" />
</svg>
