<?xml version="1.0" encoding="UTF-8" standalone="no"?>
<svg
   viewBox="0 0 28 28"
   fill="none"
   version="1.1"
   id="svg20"
   sodipodi:docname="todoItem__editBtn.svg"
   inkscape:version="1.2.1 (9c6d41e410, 2022-07-14)"
   xmlns:inkscape="http://www.inkscape.org/namespaces/inkscape"
   xmlns:sodipodi="http://sodipodi.sourceforge.net/DTD/sodipodi-0.dtd"
   xmlns="http://www.w3.org/2000/svg"
   xmlns:svg="http://www.w3.org/2000/svg">
  <defs
     id="defs24" />
  <sodipodi:namedview
     id="namedview22"
     pagecolor="#ffffff"
     bordercolor="#000000"
     borderopacity="0.25"
     inkscape:showpageshadow="2"
     inkscape:pageopacity="0.0"
     inkscape:pagecheckerboard="0"
     inkscape:deskcolor="#d1d1d1"
     showgrid="false"
     inkscape:zoom="29.892857"
     inkscape:cx="13.983274"
     inkscape:cy="14.016726"
     inkscape:window-width="1920"
     inkscape:window-height="1017"
     inkscape:window-x="-8"
     inkscape:window-y="-8"
     inkscape:window-maximized="1"
     inkscape:current-layer="svg20" />
  <path
     d="m 11.136364,0 c -0.527164,0 -0.954546,0.39175501 -0.954546,0.87500002 0,0.48324508 0.427382,0.87500008 0.954546,0.87500008 h 1.90909 V 26.25 h -1.90909 c -0.527164,0 -0.954546,0.391767 -0.954546,0.875 0,0.483233 0.427382,0.875 0.954546,0.875 h 5.727273 c 0.527163,0 0.954545,-0.391767 0.954545,-0.875 0,-0.483233 -0.427382,-0.875 -0.954545,-0.875 H 14.954546 V 1.7500001 h 1.909091 c 0.527163,0 0.954545,-0.391755 0.954545,-0.87500008 C 17.818182,0.39175501 17.3908,0 16.863637,0 Z"
     fill="#212121"
     id="path14"
     style="stroke-width:1.21854" />
  <path
     d="M 4.1363636,4.6895101 H 11.772728 V 6.4395102 H 4.1363636 c -1.2300908,0 -2.2272727,0.9140833 -2.2272727,2.0416667 V 19.564533 c 0,1.127583 0.9971819,2.041667 2.2272727,2.041667 h 7.6363644 v 1.75 H 4.1363636 C 1.8519072,23.3562 0,21.658583 0,19.564533 V 8.4811769 C 0,6.3870919 1.8519072,4.6895101 4.1363636,4.6895101 Z"
     fill="#212121"
     id="path16"
     style="stroke-width:1.21854" />
  <path
     d="m 23.863637,21.6062 h -7.636365 v 1.75 h 7.636365 C 26.148054,23.3562 28,21.658583 28,19.564533 V 8.4811769 C 28,6.3870919 26.148054,4.6895101 23.863637,4.6895101 h -7.636365 v 1.7500001 h 7.636365 c 1.230091,0 2.227272,0.9140833 2.227272,2.0416667 V 19.564533 c 0,1.127583 -0.997181,2.041667 -2.227272,2.041667 z"
     fill="#212121"
     id="path18"
     style="stroke-width:1.21854" />
</svg>
